<svg width="772" height="281" viewBox="0 0 772 281" fill="none" xmlns="http://www.w3.org/2000/svg">
    <g filter="url(#filter0_d_15_25)">
        <path
            d="M71.2885 98.892C73.7389 100.276 76.2182 101.53 78.7263 102.654C81.2632 103.75 83.8866 104.687 86.5965 105.465C89.3064 106.214 92.146 106.791 95.1154 107.195C98.1136 107.598 101.299 107.8 104.672 107.8C108.737 107.8 112.196 107.541 115.05 107.022C117.905 106.474 120.225 105.739 122.013 104.816C123.829 103.865 125.141 102.741 125.948 101.443C126.784 100.146 127.202 98.7334 127.202 97.2055C127.202 94.755 126.178 92.8235 124.132 91.4109C122.085 89.9695 118.928 89.2488 114.661 89.2488C112.787 89.2488 110.813 89.3785 108.737 89.6379C106.661 89.8686 104.557 90.128 102.423 90.4163C100.319 90.7046 98.2289 90.9785 96.1532 91.2379C94.1064 91.4686 92.1749 91.5839 90.3587 91.5839C87.3316 91.5839 84.4199 91.1947 81.6235 90.4163C78.856 89.6379 76.3911 88.4704 74.229 86.9136C72.0957 85.3569 70.3948 83.4109 69.1263 81.0758C67.8578 78.7407 67.2236 76.0164 67.2236 72.9029C67.2236 71.0578 67.4686 69.2272 67.9587 67.411C68.4776 65.5948 69.2849 63.8651 70.3803 62.2218C71.5047 60.5498 72.9461 59.0074 74.7047 57.5948C76.4632 56.1534 78.5821 54.9137 81.0614 53.8759C83.5695 52.8381 86.4524 52.0309 89.71 51.4543C92.9965 50.8489 96.7298 50.5462 100.91 50.5462C103.937 50.5462 106.978 50.7192 110.034 51.0651C113.09 51.3822 116.059 51.8435 118.942 52.4489C121.854 53.0543 124.65 53.7894 127.331 54.6543C130.013 55.4903 132.506 56.4272 134.813 57.4651L128.802 68.5353C126.899 67.6993 124.852 66.9353 122.661 66.2434C120.47 65.5227 118.178 64.9029 115.786 64.384C113.393 63.8651 110.914 63.4615 108.348 63.1732C105.811 62.8561 103.216 62.6975 100.564 62.6975C96.7875 62.6975 93.674 62.9714 91.2235 63.5191C88.8019 64.0669 86.8704 64.7732 85.4289 65.638C83.9875 66.4741 82.9785 67.4254 82.4019 68.4921C81.8542 69.5299 81.5803 70.5677 81.5803 71.6056C81.5803 73.6236 82.4884 75.2812 84.3046 76.5785C86.1208 77.847 88.8884 78.4812 92.6073 78.4812C94.1064 78.4812 95.8217 78.3803 97.7532 78.1785C99.7136 77.9479 101.76 77.7028 103.894 77.4434C106.056 77.1839 108.247 76.9533 110.467 76.7515C112.715 76.5209 114.892 76.4056 116.996 76.4056C120.975 76.4056 124.492 76.8524 127.548 77.7461C130.632 78.6398 133.213 79.9227 135.288 81.5947C137.364 83.238 138.935 85.2416 140.002 87.6055C141.068 89.9406 141.602 92.5641 141.602 95.4758C141.602 99.3676 140.694 102.841 138.877 105.897C137.09 108.924 134.524 111.49 131.18 113.595C127.865 115.67 123.858 117.256 119.159 118.351C114.459 119.418 109.227 119.951 103.461 119.951C99.6559 119.951 95.937 119.706 92.3046 119.216C88.6722 118.755 85.1839 118.092 81.8398 117.227C78.5245 116.333 75.3533 115.281 72.3263 114.07C69.3281 112.831 66.5461 111.476 63.9804 110.005L71.2885 98.892ZM191.338 51.411H205.046V88.6433C205.046 91.6992 205.464 94.4235 206.3 96.8163C207.136 99.1802 208.376 101.184 210.019 102.827C211.691 104.47 213.753 105.724 216.203 106.589C218.653 107.425 221.507 107.843 224.765 107.843C227.994 107.843 230.834 107.425 233.284 106.589C235.763 105.724 237.825 104.47 239.468 102.827C241.14 101.184 242.394 99.1802 243.23 96.8163C244.066 94.4235 244.484 91.6992 244.484 88.6433V51.411H258.192V90.2866C258.192 94.7262 257.442 98.7622 255.943 102.395C254.444 106.027 252.268 109.141 249.414 111.735C246.56 114.33 243.057 116.333 238.906 117.746C234.783 119.159 230.07 119.865 224.765 119.865C219.461 119.865 214.733 119.159 210.581 117.746C206.459 116.333 202.971 114.33 200.117 111.735C197.262 109.141 195.086 106.027 193.587 102.395C192.088 98.7622 191.338 94.7262 191.338 90.2866V51.411ZM312.037 51.411H325.745L367.863 73.465V51.411H381.571V119H367.863V87.9947L325.745 66.0705V119H312.037V51.411ZM437.881 51.411H451.589V106.978H490.897V119H437.881V51.411ZM539.682 51.411H553.477V119H539.682V51.411ZM628.554 63.4326H603.602V51.411H667.213V63.4326H642.262V119H628.554V63.4326ZM50.146 162.411H74.9243C82.1603 162.411 88.445 163.189 93.7783 164.746C99.1116 166.303 103.522 168.537 107.011 171.449C110.528 174.332 113.137 177.849 114.838 182C116.567 186.123 117.432 190.764 117.432 195.924C117.432 200.825 116.582 205.366 114.881 209.546C113.18 213.697 110.585 217.301 107.097 220.357C103.609 223.384 99.1981 225.762 93.8648 227.492C88.5315 229.193 82.2468 230.043 75.0108 230.043L50.146 230V162.411ZM78.2973 218.151C82.391 218.151 85.9802 217.632 89.0648 216.595C92.1495 215.528 94.7153 214.029 96.7621 212.097C98.8378 210.166 100.395 207.831 101.432 205.092C102.47 202.353 102.989 199.297 102.989 195.924C102.989 192.609 102.47 189.625 101.432 186.973C100.395 184.292 98.8378 182.029 96.7621 180.184C94.7153 178.31 92.1495 176.869 89.0648 175.86C85.9802 174.851 82.391 174.346 78.2973 174.346H63.8541V218.151H78.2973ZM168.38 162.411H202.758C207.947 162.411 212.444 162.959 216.25 164.054C220.055 165.121 223.212 166.678 225.72 168.725C228.228 170.771 230.087 173.265 231.298 176.206C232.538 179.146 233.158 182.476 233.158 186.195C233.158 188.703 232.855 191.096 232.25 193.373C231.644 195.622 230.707 197.697 229.439 199.6C228.199 201.503 226.628 203.204 224.725 204.703C222.823 206.173 220.588 207.398 218.023 208.378L232.725 230H215.947L203.234 210.8H202.844L182.088 210.757V230H168.38V162.411ZM203.104 198.908C205.698 198.908 207.961 198.606 209.893 198C211.853 197.395 213.482 196.544 214.779 195.449C216.106 194.353 217.086 193.027 217.72 191.47C218.383 189.885 218.715 188.126 218.715 186.195C218.715 182.418 217.417 179.506 214.823 177.46C212.228 175.384 208.322 174.346 203.104 174.346H182.088V198.908H203.104ZM286.613 162.411H344.17V174.433H300.321V187.924H339.153V199.211H300.321V218.022H345.078V230H286.613V162.411ZM420.544 162.411H435.074L467.765 230H453.365L447.96 218.627H408.479L403.247 230H388.803L420.544 162.411ZM442.555 207.341L427.938 176.638L413.711 207.341H442.555ZM515.513 162.411H529.221L553.783 187.06L578.345 162.411H592.053V230H578.345V181.395L553.783 205.049L529.221 181.395V230H515.513V162.411ZM651.649 209.892C654.099 211.276 656.579 212.53 659.087 213.654C661.624 214.75 664.247 215.687 666.957 216.465C669.667 217.214 672.506 217.791 675.476 218.195C678.474 218.598 681.66 218.8 685.032 218.8C689.097 218.8 692.557 218.541 695.411 218.022C698.265 217.474 700.586 216.739 702.373 215.816C704.189 214.865 705.501 213.741 706.308 212.443C707.144 211.146 707.562 209.733 707.562 208.205C707.562 205.755 706.539 203.824 704.492 202.411C702.445 200.969 699.288 200.249 695.022 200.249C693.148 200.249 691.173 200.378 689.097 200.638C687.022 200.869 684.917 201.128 682.784 201.416C680.679 201.705 678.589 201.978 676.514 202.238C674.467 202.469 672.535 202.584 670.719 202.584C667.692 202.584 664.78 202.195 661.984 201.416C659.216 200.638 656.751 199.47 654.589 197.914C652.456 196.357 650.755 194.411 649.487 192.076C648.218 189.741 647.584 187.016 647.584 183.903C647.584 182.058 647.829 180.227 648.319 178.411C648.838 176.595 649.645 174.865 650.741 173.222C651.865 171.55 653.306 170.007 655.065 168.595C656.824 167.153 658.942 165.914 661.422 164.876C663.93 163.838 666.813 163.031 670.07 162.454C673.357 161.849 677.09 161.546 681.27 161.546C684.297 161.546 687.339 161.719 690.395 162.065C693.45 162.382 696.42 162.843 699.303 163.449C702.214 164.054 705.011 164.789 707.692 165.654C710.373 166.49 712.867 167.427 715.173 168.465L709.162 179.535C707.259 178.699 705.213 177.935 703.022 177.243C700.831 176.523 698.539 175.903 696.146 175.384C693.753 174.865 691.274 174.461 688.708 174.173C686.171 173.856 683.577 173.697 680.924 173.697C677.148 173.697 674.034 173.971 671.584 174.519C669.162 175.067 667.231 175.773 665.789 176.638C664.348 177.474 663.339 178.425 662.762 179.492C662.215 180.53 661.941 181.568 661.941 182.606C661.941 184.624 662.849 186.281 664.665 187.579C666.481 188.847 669.249 189.481 672.968 189.481C674.467 189.481 676.182 189.38 678.114 189.179C680.074 188.948 682.121 188.703 684.254 188.443C686.416 188.184 688.607 187.953 690.827 187.751C693.076 187.521 695.252 187.406 697.357 187.406C701.335 187.406 704.852 187.852 707.908 188.746C710.993 189.64 713.573 190.923 715.649 192.595C717.724 194.238 719.295 196.242 720.362 198.606C721.429 200.941 721.962 203.564 721.962 206.476C721.962 210.368 721.054 213.841 719.238 216.897C717.45 219.924 714.885 222.49 711.54 224.595C708.225 226.67 704.218 228.256 699.519 229.351C694.82 230.418 689.587 230.951 683.822 230.951C680.016 230.951 676.297 230.706 672.665 230.216C669.033 229.755 665.544 229.092 662.2 228.227C658.885 227.333 655.714 226.281 652.687 225.07C649.688 223.831 646.906 222.476 644.341 221.005L651.649 209.892Z"
            fill="white" />
    </g>
    <defs>
        <filter id="filter0_d_15_25" x="0.145996" y="0.546387" width="771.816" height="280.405"
            filterUnits="userSpaceOnUse" color-interpolation-filters="sRGB">
            <feFlood flood-opacity="0" result="BackgroundImageFix" />
            <feColorMatrix in="SourceAlpha" type="matrix"
                values="0 0 0 0 0 0 0 0 0 0 0 0 0 0 0 0 0 0 127 0" result="hardAlpha" />
            <feOffset />
            <feGaussianBlur stdDeviation="25" />
            <feComposite in2="hardAlpha" operator="out" />
            <feColorMatrix type="matrix" values="0 0 0 0 1 0 0 0 0 1 0 0 0 0 1 0 0 0 0.51 0" />
            <feBlend mode="normal" in2="BackgroundImageFix" result="effect1_dropShadow_15_25" />
            <feBlend mode="normal" in="SourceGraphic" in2="effect1_dropShadow_15_25" result="shape" />
        </filter>
    </defs>
</svg>
    